<?xml version="1.0" encoding="UTF-8" standalone="no"?>
<svg
   width="100%"
   height="100%"
   viewBox="0 0 860 1204"
   version="1.1"
   xml:space="preserve"
   style="fill-rule:evenodd;clip-rule:evenodd;stroke-linejoin:round;stroke-miterlimit:2;"
   id="svg6"
   sodipodi:docname="godot_wild_card_back_logo_only.svg"
   inkscape:version="1.4 (86a8ad7, 2024-10-11)"
   inkscape:export-filename="godot_wild_card_back_logo_only.png"
   inkscape:export-xdpi="96"
   inkscape:export-ydpi="96"
   xmlns:inkscape="http://www.inkscape.org/namespaces/inkscape"
   xmlns:sodipodi="http://sodipodi.sourceforge.net/DTD/sodipodi-0.dtd"
   xmlns="http://www.w3.org/2000/svg"
   xmlns:svg="http://www.w3.org/2000/svg"><defs
   id="defs6" /><sodipodi:namedview
   id="namedview6"
   pagecolor="#505050"
   bordercolor="#eeeeee"
   borderopacity="1"
   inkscape:showpageshadow="0"
   inkscape:pageopacity="0"
   inkscape:pagecheckerboard="0"
   inkscape:deskcolor="#505050"
   inkscape:zoom="0.71356706"
   inkscape:cx="46.246529"
   inkscape:cy="373.47576"
   inkscape:window-width="2560"
   inkscape:window-height="1417"
   inkscape:window-x="1072"
   inkscape:window-y="1072"
   inkscape:window-maximized="1"
   inkscape:current-layer="g5" />
    <g
   transform="matrix(1,0,0,1,-1840,0)"
   id="g6">
        <clipPath
   id="_clip1">
            <path
   d="M2700,69L2700,1135C2700,1173.08 2669.08,1204 2631,1204L1909,1204C1870.92,1204 1840,1173.08 1840,1135L1840,69C1840,30.918 1870.92,0 1909,0L2631,0C2669.08,0 2700,30.918 2700,69Z"
   id="path1" />
        </clipPath>
        <g
   clip-path="url(#_clip1)"
   id="g5">
            <g
   transform="matrix(1.02994,0,0,1,-57.1497,0)"
   id="g1">
                <rect
   x="1842"
   y="0"
   width="835"
   height="1204"
   style="fill:rgb(19,34,63);"
   id="rect1" />
            </g>
            <g
   id="Frame"
   transform="matrix(1.02994,0,0,1,-57.1497,0)">
                <path
   d="M2677,0L2677,1204L1842,1204L1842,0L2677,0ZM1865.3,197.89L1865.3,1098.21L1952.21,1093.82L1865.3,1120.5L1865.3,1136C1865.3,1137.63 1865.39,1139.24 1865.56,1140.82L2019.21,1122.82L1875.31,1164.28C1883.14,1173.89 1894.9,1180 1908.02,1180L2610.98,1180C2634.55,1180 2653.7,1160.28 2653.7,1136L2653.7,539.605L2514.86,556L2653.7,514.214L2653.7,161.651L2546.89,173L2653.7,134.855L2653.7,68C2653.7,43.716 2634.55,24 2610.98,24L1908.02,24C1884.44,24 1865.3,43.716 1865.3,68L1865.3,178.222L2040.57,153.228L1865.3,197.89Z"
   style="fill:rgb(240,98,75);"
   id="path2" />
            </g>
            
            <g
   id="g7"
   transform="translate(2000.8594,286.1064)"
   style="fill-rule:evenodd;clip-rule:evenodd;stroke-linejoin:round;stroke-miterlimit:2"><g
     id="BG">
</g><g
     id="Layer_3">
	<path
   class="st0"
   d="m 442.4,244 c 4.6,-10.3 6.3,-21 4.2,-27.9 -2.1,-6.9 -4.5,-10.3 -3.3,-15.6 1.2,-5.3 20,-10.8 27.9,-13 12.8,-3.5 24.1,-6.1 34.1,-6.8 4.7,-0.3 6.1,2.3 3,4.6 -4.8,3.7 -15.3,11.9 -26.8,19.5 -17.4,11.6 -14.1,26.8 -39.1,39.2 z m -18.6,-17.2 c -1.3,10.5 -13.9,31.7 -13.9,31.7 0,0 -0.9,-3.6 -1.5,-5.6 -0.6,-2 -2.1,-2.4 -2.1,-2.4 0,0 -4.8,18.8 -10.7,23.4 -13,10.1 -21.3,6 -34.2,34.3 -2.7,5.9 -0.4,18.5 -2.4,21.2 1,3.1 2,8.7 0.1,16.2 -6.4,-2 -18.5,-3.1 -18.5,-3.1 0,0 9.2,4.5 15,7.5 -0.6,3.1 -9.2,21.5 -11.4,23.4 -9.7,-3.6 -21.5,-5.9 -21.5,-5.9 0,0 8.4,5.3 17.6,10.5 -1.4,3.5 -12.9,17.5 -15.7,19 -8.1,-7.1 -19,-11 -19,-11 0,0 5.8,6 16.2,15.1 -11.4,8.8 -25.3,6.1 -35.9,3.9 -1.1,-0.2 -4.8,-7.4 -4.8,-7.4 0,0 -3.1,7.1 -10.6,2 -4.7,-3.2 -9.1,-9.4 -8.8,-15.9 0.3,-6.8 5.6,-15.7 22.1,-24.6 10,-5.4 14.8,-17.4 14.1,-31.4 0.7,-4.2 3.8,-26.1 5.7,-36.1 2.4,-12.4 8.1,-36.5 18.8,-51.3 8.9,-12.3 21.8,-18.2 44.6,-25.7 25.3,-8.3 40.8,-8.8 54.1,-10.2 0,0.2 4.4,8.2 2.7,22.4 z m -54.2,21.8 c 6.3,-6.6 8.6,-14.8 8.6,-14.8 0,0 -20.8,4.4 -29.3,5.7 -14.8,2.3 -16.5,6.1 -21.7,13.1 -4,5.4 -4.5,9.4 -2.9,18.2 0.5,2.7 2.3,4 3.9,6.8 1.8,3.3 2.2,9.4 3.3,9.3 1.6,-0.2 7.8,-6.5 14.6,-8.4 11.7,-3.3 14.5,-20.4 23.5,-29.9 z m -27.7,28.7 c -5.9,0 -10.6,-5.4 -10.6,-12.1 0,-6.7 4.9,-10.8 10.6,-12.1 10.6,-2.4 9.4,4.5 10.6,12.1 1.1,6.6 -4.7,12.1 -10.6,12.1 z m -1.1,-8.9 c 0,-0.5 -0.4,-0.9 -0.9,-0.9 -0.5,0 -0.9,0.4 -0.9,0.9 0,0.5 0.4,0.9 0.9,0.9 0.5,0 0.9,-0.4 0.9,-0.9 z m 3.9,0.1 c 0,-0.8 -0.5,-1.4 -1.1,-1.4 -0.6,0 -1.1,0.6 -1.1,1.4 0,0.8 0.5,1.4 1.1,1.4 0.7,0.1 1.1,-0.6 1.1,-1.4 z m 0,-4.2 c 0,-1.7 -1.1,-3.1 -2.5,-3.1 -1.4,0 -2.5,1.4 -2.5,3.1 0,1.7 1.1,3.1 2.5,3.1 1.4,0.1 2.5,-1.3 2.5,-3.1 z M 69.6,244 c -4.6,-10.3 -6.3,-21 -4.2,-27.9 2.1,-6.9 4.5,-10.3 3.3,-15.6 -1.2,-5.3 -20,-10.8 -27.9,-13 C 28,184 16.7,181.4 6.7,180.7 2,180.4 0.6,183 3.7,185.3 8.5,189 19,197.2 30.5,204.8 47.9,216.4 44.6,231.6 69.6,244 Z m 21.3,-39.4 c 13.3,1.4 28.8,1.9 54.1,10.2 22.7,7.5 35.7,13.4 44.6,25.7 10.7,14.9 16.4,38.9 18.8,51.3 1.9,10 5,31.9 5.7,36.1 -0.7,14 4.1,26 14.1,31.4 16.6,8.9 21.9,17.8 22.1,24.6 0.3,6.4 -4.1,12.6 -8.8,15.9 -7.5,5.1 -10.6,-2 -10.6,-2 0,0 -3.7,7.1 -4.8,7.4 -10.6,2.2 -24.6,4.8 -35.9,-3.9 10.4,-9.2 16.2,-15.1 16.2,-15.1 0,0 -10.9,3.9 -19,11 -2.8,-1.5 -14.3,-15.6 -15.7,-19 9.2,-5.3 17.6,-10.5 17.6,-10.5 0,0 -11.8,2.3 -21.5,5.9 -2.2,-1.9 -10.8,-20.3 -11.4,-23.4 5.8,-3 15,-7.5 15,-7.5 0,0 -12.1,1.1 -18.5,3.1 -2,-7.6 -0.9,-13.1 0.1,-16.2 -1.9,-2.7 0.4,-15.3 -2.4,-21.2 -12.9,-28.3 -21.2,-24.2 -34.2,-34.3 -5.9,-4.6 -10.7,-23.4 -10.7,-23.4 0,0 -1.5,0.4 -2.1,2.4 -0.6,2 -1.5,5.6 -1.5,5.6 0,0 -12.6,-21.2 -13.9,-31.7 -1.7,-14.4 2.7,-22.4 2.7,-22.4 z m 75.1,73.9 c 6.8,1.9 13,8.3 14.6,8.4 1.1,0.1 1.5,-6 3.3,-9.3 1.6,-2.9 3.4,-4.2 3.9,-6.8 1.6,-8.8 1.1,-12.8 -2.9,-18.2 -5.2,-7 -6.9,-10.8 -21.7,-13.1 -8.5,-1.3 -29.3,-5.7 -29.3,-5.7 0,0 2.3,8.2 8.6,14.8 8.9,9.5 11.7,26.6 23.5,29.9 z m -6.5,-13.3 c 1.2,-7.6 0,-14.5 10.6,-12.1 5.7,1.3 10.6,5.4 10.6,12.1 0,6.7 -4.7,12.1 -10.6,12.1 -5.9,0 -11.7,-5.5 -10.6,-12.1 z m 12.6,4.1 c 0.5,0 0.9,-0.4 0.9,-0.9 0,-0.5 -0.4,-0.9 -0.9,-0.9 -0.5,0 -0.9,0.4 -0.9,0.9 0,0.5 0.4,0.9 0.9,0.9 z m -3.8,0.7 c 0.6,0 1.1,-0.6 1.1,-1.4 0,-0.8 -0.5,-1.4 -1.1,-1.4 -0.6,0 -1.1,0.6 -1.1,1.4 0.1,0.7 0.5,1.4 1.1,1.4 z m 1.5,-2.5 c 1.4,0 2.5,-1.4 2.5,-3.1 0,-1.7 -1.1,-3.1 -2.5,-3.1 -1.4,0 -2.5,1.4 -2.5,3.1 0,1.7 1.1,3.1 2.5,3.1 z m 118.7,61.8 c -2.9,-4.5 -8.5,-5.6 -16.9,-6.2 -7.6,-0.6 -15.6,-0.6 -15.6,-0.6 0,0 -8,0 -15.6,0.6 -8.4,0.7 -14,1.7 -16.9,6.2 -3.3,5.2 -4.7,16.2 13.8,28.4 0.9,0.6 1.5,-2 -1.3,-4.6 -4.4,-4.2 -6.7,-17.9 -3.9,-17.2 6.6,1.9 13.8,13.7 10.9,22.6 -0.7,2.3 4.6,6.5 7,7.5 3.8,1.5 6,1.5 6,1.5 0,0 2.3,0 6,-1.5 2.4,-0.9 7.8,-5.1 7,-7.5 -2.8,-8.8 4.3,-20.7 10.9,-22.6 2.7,-0.8 0.4,13 -3.9,17.2 -2.8,2.7 -2.2,5.3 -1.3,4.6 18.6,-12.2 17.1,-23.2 13.8,-28.4 z M 500.4,212.2 c 1.2,12.1 -1.2,23.6 -3.5,25.3 -0.1,-4.1 -1.1,-7.2 -2.4,-9.6 -1.8,-3.5 -4.1,-5 -4.1,-5 0,0 2.4,10.3 -0.3,41.1 -1.8,19.5 -13.7,39.2 -13.7,39.2 0,0 0.3,-8 -2.8,-17.7 -2.6,-8.2 -8.8,-13.6 -8.8,-13.6 0,0 5,17.1 5.7,24.5 5.2,55.1 -38,84.2 -38,84.2 0,0 1,-6.7 -1.3,-18.7 -1.8,-9.3 -8.2,-14.6 -8.2,-14.6 3.2,6.6 5.3,22 0.7,31.7 -4,8.4 -9.2,12.1 -18,20.8 -9.7,9.6 -31.6,18.7 -31.6,18.7 0,0 1.3,-12.5 -0.5,-14.9 0.2,2.5 -5.8,17.2 -13.1,20.7 -6.7,3.2 -16.3,10.4 -21,18.6 0.8,-8 1.6,-15.1 2.8,-21.5 -9.9,14.1 -25.8,35 -41.9,45.4 1.2,-9.7 3.6,-15.3 0,-22.2 -2,18 -22.3,35.4 -22.3,35.4 0,0 4.3,-19.5 2.3,-29.5 -14.3,39.3 -24.6,46.5 -24.6,46.5 0,0 -10.2,-7.2 -24.6,-46.5 -2.1,9.9 2.3,29.5 2.3,29.5 0,0 -20.3,-17.3 -22.3,-35.4 -3.6,6.9 -1.2,12.5 0,22.2 -16.1,-10.4 -32,-31.3 -41.9,-45.4 1.2,6.4 2,13.5 2.8,21.5 -4.6,-8.2 -14.3,-15.4 -21,-18.6 -7.3,-3.5 -13.2,-18.2 -13.1,-20.7 -1.7,2.4 -0.5,14.9 -0.5,14.9 0,0 -21.9,-9.1 -31.6,-18.7 -8.8,-8.7 -14,-12.4 -18,-20.8 -4.6,-9.7 -2.5,-25 0.7,-31.7 0,0 -6.4,5.3 -8.2,14.6 -2.3,12 -1.3,18.7 -1.3,18.7 0,0 -43.2,-29.1 -38,-84.2 0.7,-7.3 5.7,-24.5 5.7,-24.5 0,0 -6.1,5.4 -8.8,13.6 -3.1,9.8 -2.8,17.7 -2.8,17.7 0,0 -11.9,-19.7 -13.7,-39.2 -2.8,-30.8 -0.3,-41.1 -0.3,-41.1 0,0 -2.3,1.5 -4.1,5 -1.2,2.4 -2.3,5.5 -2.4,9.6 -2.3,-1.7 -4.8,-13.2 -3.5,-25.3 0.9,-9.1 3.9,-10.8 3.9,-10.8 0,0 14.4,7.7 21.6,20.8 14.1,25.7 35.7,30.6 41.8,32.6 0.8,-5.5 -9.7,-23.5 -7.3,-36.3 2,-11.1 8.8,-11.7 3,-22.1 C 70.7,190.1 56,185.1 42.6,181.6 39.3,180.9 32.6,179.4 30.5,178.9 22.2,177 16.9,176.7 12.8,171.5 9.1,166.8 10,162 10,162 c 0,0 8.2,3.5 16.7,-2 11,-7.1 -2.3,-18.9 16.5,-35.8 11.6,-10.4 26.9,-8.2 26.9,-8.2 0,0 -9.2,-6.1 -20,-5.6 -10,0.5 -17.6,2.4 -28.4,15.5 5.7,-26.4 18.6,-35.7 32,-42.9 12.4,-6.6 32.5,-8.7 46,-7.6 0,0 -5.1,-6.7 -14.1,-9.7 C 73.3,61.7 65.2,62.8 59,65 c 4.6,-8.9 21.2,-17 43.9,-18.4 26.9,-1.7 49.4,7.8 49.4,7.8 0,0 1.5,-4.6 -7.5,-10 -11.3,-6.8 -25.8,-7.8 -31.9,-5.7 4,-5.1 20.8,-13.5 51.3,-8.8 18.8,2.9 26.9,6.3 26.9,6.3 0,0 -0.3,-5.3 -4.7,-8.8 -4.2,-3.4 -9.6,-4.9 -14.3,-5.7 3,-2.2 20.5,-4 37.4,-5.2 21.4,-1.5 46.4,-1.6 46.4,-1.6 0,0 25,0 46.4,1.6 16.9,1.2 34.4,3 37.4,5.2 -4.6,0.8 -10,2.3 -14.3,5.7 -4.5,3.5 -4.7,8.8 -4.7,8.8 0,0 8.1,-3.4 26.9,-6.3 30.5,-4.7 47.3,3.7 51.3,8.8 -6.1,-2.1 -20.6,-1.1 -31.9,5.7 -9,5.4 -7.5,10 -7.5,10 0,0 22.5,-9.4 49.4,-7.8 22.7,1.4 39.3,9.6 43.9,18.4 -6.2,-2.2 -14.3,-3.3 -26.6,0.7 -9.1,3 -14.1,9.7 -14.1,9.7 13.5,-1.1 33.5,0.9 46,7.6 13.4,7.2 26.2,16.5 32,42.9 -10.7,-13.1 -18.3,-15 -28.4,-15.5 -10.8,-0.5 -20,5.6 -20,5.6 0,0 15.2,-2.2 26.9,8.2 18.8,16.9 5.5,28.7 16.5,35.8 8.5,5.5 16.7,2 16.7,2 0,0 1,4.7 -2.8,9.5 -4.1,5.2 -9.4,5.5 -17.7,7.4 -2.1,0.5 -8.8,1.9 -12.1,2.7 -13.5,3.4 -28.1,8.5 -31.6,14.8 -5.9,10.5 0.9,11 3,22.1 2.3,12.7 -8.1,30.7 -7.3,36.3 6.1,-2 27.7,-6.9 41.8,-32.6 7.2,-13 21.6,-20.8 21.6,-20.8 0,0 2.8,1.7 3.7,10.8 z m -210.8,-71 h 0.5 c 2,-8.2 3.6,-16.3 5.4,-24.4 1.9,-8 3,-16.2 5.5,-24 2.3,-7.8 5.9,-15.2 10.5,-22.1 4.5,-6.8 9.9,-13.3 16.2,-18.7 l -0.3,-0.4 c -6.8,4.9 -12.8,10.9 -18,17.6 -5.1,6.7 -9.4,14.2 -12.4,22.2 -3,7.9 -5.6,16.1 -6.7,24.5 -1.2,8.4 -1.7,16.8 -0.7,25.3 z m -16.3,117.7 0.5,0.1 c 3.5,-15.5 7.6,-30.7 12.5,-45.6 4.9,-14.9 10.1,-29.7 17.3,-43.6 7.4,-13.7 17.1,-26.2 28.3,-37.3 11.1,-11.2 23.4,-21.3 36.7,-29.7 l -0.3,-0.5 c -13.8,7.9 -26.6,17.5 -38.3,28.3 -11.7,10.9 -22.1,23.2 -30.2,37.2 -7.9,13.9 -14.4,28.7 -18.7,44.1 -2.1,7.7 -4,15.5 -5.3,23.4 -1.2,7.7 -2.2,15.7 -2.5,23.6 z m -89,-206.8 c 6.3,5.4 11.6,11.9 16.2,18.7 4.6,6.9 8.2,14.2 10.5,22.1 2.5,7.8 3.6,16 5.5,24 1.8,8.1 3.4,16.2 5.4,24.4 h 0.5 c 1,-8.4 0.5,-16.9 -0.6,-25.3 -1.1,-8.4 -3.7,-16.5 -6.7,-24.5 -2.9,-8 -7.2,-15.5 -12.4,-22.2 -5.3,-6.6 -11.2,-12.6 -18,-17.6 z m -41,50.6 c 13.3,8.5 25.6,18.6 36.7,29.7 11.1,11.1 20.9,23.6 28.3,37.3 7.2,13.9 12.5,28.7 17.3,43.6 4.9,14.9 8.9,30.1 12.5,45.6 l 0.5,-0.1 c -0.2,-8 -1.3,-15.9 -2.6,-23.8 -1.3,-7.9 -3.1,-15.7 -5.3,-23.4 -4.3,-15.4 -10.8,-30.2 -18.7,-44.1 -8.1,-13.9 -18.5,-26.3 -30.2,-37.2 -11.7,-10.8 -24.5,-20.4 -38.3,-28.3 z m -58.2,41 c 10.1,2.4 20,5.9 29,10.9 9.1,4.9 16.7,11.9 24.4,18.8 7.7,6.9 15,14.4 22.5,21.9 l 0.4,-0.3 c -2.5,-4.7 -5.4,-9.2 -8.7,-13.4 -3.2,-4.3 -6.7,-8.3 -10.5,-12.1 -7.5,-7.7 -16.5,-13.9 -26.2,-18.6 -9.6,-4.8 -20,-7.9 -30.5,-9.8 -10.5,-1.7 -21.2,-2.3 -31.7,-1.2 l 0.1,0.5 c 10.5,-0.3 21.1,1 31.2,3.3 z m 191.3,281.9 c -3.5,1 -6.8,1 -10.2,1.2 -3.4,0.1 -6.8,0.1 -10.2,0 0,0 0,0 0,0 0,0 0,0 0,0 -3.4,0 -6.8,0.1 -10.2,0 -3.4,-0.2 -6.8,-0.2 -10.2,-1.2 1.1,1.5 2.8,2.5 4.4,3.3 1.7,0.8 3.4,1.5 5.2,1.9 3.6,1 7.2,1.3 10.8,1.3 0,0 0,0 0,0 0,0 0,0 0,0 3.6,0 7.2,-0.4 10.8,-1.3 1.8,-0.4 3.5,-1.1 5.2,-1.9 1.6,-0.8 3.3,-1.8 4.4,-3.3 z m 150,-227.2 c -15.3,0.2 -23.7,1.1 -39.6,4 -23.6,4.4 -33,8.7 -50.5,16.6 -16.5,7.4 -27.3,20.7 -32.2,40.1 -0.9,3.4 -1.8,7.3 -2.6,11.4 0,0.1 0,0.2 -0.1,0.2 -0.2,0.9 -0.4,1.7 -0.6,2.6 0,0.2 -0.1,0.4 -0.1,0.6 -0.2,0.8 -0.4,1.6 -0.5,2.5 0,0.2 -0.1,0.3 -0.1,0.5 -0.2,1 -0.4,2 -0.6,3 0,0.1 0,0.2 -0.1,0.4 -0.2,0.9 -0.4,1.8 -0.6,2.7 -4,19.7 -7.5,39.7 -7.5,39.7 0,0 -1.7,-2.1 -4.6,-3 2.7,-18.5 -0.6,-32.6 -0.6,-32.6 0,0 -2.4,28.8 -4.2,31.5 -3.3,-0.6 -5,-0.4 -8.2,-0.6 -3.6,-0.2 -5.9,-0.2 -9,-0.4 0.4,-4.4 -1.3,-7.8 -1.3,-7.8 0,0 -1.4,7.7 -2,7.7 -2.7,0.1 -5.5,-0.1 -5.5,-0.1 v 0 c 0,0 -2.9,0.1 -5.5,0.1 -0.6,0 -2,-7.7 -2,-7.7 0,0 -1.8,3.3 -1.3,7.8 -3.1,0.2 -5.4,0.2 -9,0.4 -3.1,0.2 -4.9,0 -8.2,0.6 -1.8,-2.7 -4.2,-31.5 -4.2,-31.5 0,0 -3.3,14.1 -0.6,32.6 -2.8,1 -4.6,3 -4.6,3 0,0 -3.5,-20 -7.5,-39.7 -0.2,-0.9 -0.4,-1.8 -0.6,-2.7 0,-0.1 -0.1,-0.2 -0.1,-0.4 -0.2,-1 -0.4,-2 -0.6,-3 0,-0.2 -0.1,-0.3 -0.1,-0.5 -0.2,-0.8 -0.4,-1.7 -0.5,-2.5 0,-0.2 -0.1,-0.4 -0.1,-0.6 -0.2,-0.9 -0.4,-1.8 -0.6,-2.6 0,-0.1 0,-0.2 -0.1,-0.2 -0.9,-4.1 -1.8,-7.9 -2.6,-11.4 -4.9,-19.4 -15.6,-32.7 -32.2,-40.1 -17.5,-7.9 -26.9,-12.2 -50.5,-16.6 -16,-2.9 -24.3,-3.8 -39.6,-4 -8.4,21.1 -3.9,41.3 9.9,62 5.9,8.8 7.8,17.2 15.3,25.5 1.5,1.6 15.1,5.7 17.9,8.2 2.7,2.4 17.2,37.4 16.1,48.7 0.4,1.5 0.8,3.2 1.3,4.9 -3.7,1.1 -11.2,3.2 -18.6,5.7 -17.8,6 -35,14.5 -34.2,14.7 0,0 20.9,-5.8 33.2,-9.7 9.5,-2.9 17.1,-4.6 21.2,-5.4 2.4,7.6 5.6,16.1 9.7,24.1 -1.8,0.7 -4,1.6 -6.7,2.9 -12.1,5.3 -29.3,17.1 -29.3,17.1 0,0 14.2,-5.6 31,-11.5 3.3,-1.1 6,-2 8.3,-2.7 2,3.4 4.2,6.5 6.7,9.3 2.4,2.7 5.8,7.1 10.7,11.9 -1.4,0.9 -2.8,1.8 -3.8,2.6 -3.9,3 -15.9,14.4 -15.9,14.4 0,0 12.2,-6.6 16.8,-9.5 2.3,-1.4 4.6,-2.9 6.5,-4.1 5.3,4.6 12.1,9.3 20.8,13.1 11.1,4.8 18.9,-3.3 28.9,-7.1 10.4,-4 18.5,-7 18.5,-7 l 6.4,-0.7 6.3,0.7 c 0,0 8.1,3 18.5,7 10,3.8 17.8,11.9 28.9,7.1 8.7,-3.8 15.5,-8.5 20.8,-13.1 1.9,1.3 4.2,2.7 6.5,4.1 4.6,2.8 16.8,9.5 16.8,9.5 0,0 -12,-11.3 -15.9,-14.4 -1,-0.7 -2.4,-1.7 -3.8,-2.6 4.9,-4.8 8.3,-9.2 10.7,-11.9 2.4,-2.8 4.6,-6 6.7,-9.3 2.3,0.7 5,1.6 8.3,2.7 16.8,5.8 31,11.5 31,11.5 0,0 -17.3,-11.8 -29.3,-17.1 -2.8,-1.2 -5,-2.1 -6.8,-2.9 4.1,-8 7.3,-16.5 9.7,-24.1 4.1,0.8 11.7,2.5 21.2,5.4 12.4,3.8 33.2,9.7 33.2,9.7 0.8,-0.2 -16.4,-8.7 -34.2,-14.7 -7.4,-2.5 -14.9,-4.7 -18.6,-5.7 0.5,-1.7 0.9,-3.4 1.3,-4.9 -1.2,-11.3 13.4,-46.3 16.1,-48.7 2.7,-2.5 16.4,-6.5 17.9,-8.2 7.5,-8.4 9.4,-16.7 15.3,-25.5 13.6,-20.8 18.1,-40.9 9.7,-62 z m 31.6,-57.9 0.1,-0.5 c -10.5,-1.1 -21.2,-0.5 -31.7,1.2 -10.5,1.9 -20.8,5 -30.5,9.8 -9.7,4.7 -18.7,11 -26.2,18.6 -3.8,3.8 -7.3,7.8 -10.5,12.1 -3.2,4.2 -6.2,8.7 -8.7,13.4 l 0.4,0.3 c 7.4,-7.6 14.7,-15 22.5,-21.9 7.7,-6.9 15.4,-13.9 24.4,-18.8 9,-5.1 18.9,-8.6 29,-10.9 10.2,-2.4 20.8,-3.7 31.2,-3.3 z"
   id="path1-5" />
</g></g><g
   id="Shine"
   opacity="0.05"
   style="display:inline">
                <g
   transform="matrix(1,0,-9.86071,27.2581,8.6821,-24)"
   id="g3">
                    <rect
   x="1996"
   y="0"
   width="118"
   height="31"
   style="fill:#ffffff"
   id="rect3" />
                </g>
                <g
   transform="matrix(0.469993,0,-13.0115,35.9677,1245.45,-24)"
   id="g4">
                    <rect
   x="1996"
   y="0"
   width="118"
   height="31"
   style="fill:#ffffff"
   id="rect4" />
                </g>
            </g>
        </g>
    </g>
<style
   type="text/css"
   id="style1">
	.st0{fill:#FA6149;}
</style><style
   type="text/css"
   id="style1-9">
	.st0{fill:#F0624B;}
	.st1{fill:#F1634C;}
</style><style
   type="text/css"
   id="style1-8">
	.st0{fill:#FA6149;}
</style><style
   type="text/css"
   id="style1-4">
	.st0{fill:#FA6149;}
</style></svg>
