# MagicaVoxel @ Ephtracy

# group
o 

# material
mtllib SmallStoneSnow.mtl
usemtl palette

# normals
vn -1 0 0
vn 1 0 0
vn 0 0 1
vn 0 0 -1
vn 0 -1 0
vn 0 1 0

# texcoords
vt 0.830078 0.5
vt 0.876953 0.5
vt 0.880859 0.5
vt 0.884766 0.5
vt 0.943359 0.5

# verts
v -0.6 0 -0.2
v -0.6 0 -0.4
v -0.6 0.2 -0.2
v -0.6 0.2 -0.4
v -0.5 0 0
v -0.5 0 -0.2
v -0.5 0.2 0
v -0.5 0.2 -0.1
v -0.5 0.2 -0.2
v -0.5 0.2 -0.3
v -0.5 0.3 -0.1
v -0.5 0.3 -0.2
v -0.5 0.3 -0.3
v -0.5 0.4 -0.2
v -0.5 0.4 -0.3
v -0.4 0 0.1
v -0.4 0 0
v -0.4 0.2 0.1
v -0.4 0.2 0
v -0.4 0.2 -0.1
v -0.4 0.3 0
v -0.4 0.3 -0.1
v -0.4 0.3 -0.2
v -0.4 0.4 0
v -0.4 0.4 -0.2
v -0.3 0.2 0.1
v -0.3 0.2 0
v -0.3 0.3 0.1
v -0.3 0.3 0
v -0.2 0 0.2
v -0.2 0 0.1
v -0.2 0 -0.3
v -0.2 0 -0.4
v -0.2 0.2 0.2
v -0.2 0.2 0.1
v -0.2 0.2 -0.2
v -0.2 0.2 -0.3
v -0.2 0.2 -0.4
v -0.2 0.3 -0.2
v -0.2 0.3 -0.3
v -0.2 0.3 -0.4
v -0.2 0.4 -0.2
v -0.2 0.4 -0.3
v -0.1 0 0.3
v -0.1 0 0.2
v -0.1 0.2 0.3
v -0.1 0.2 0.2
v -0.1 0.2 0.1
v -0.1 0.3 0.2
v -0.1 0.3 0.1
v -0.1 0.3 0
v -0.1 0.4 0.1
v -0.1 0.4 0
v -0.1 0.4 -0.1
v -0.1 0.5 0
v -0.1 0.5 -0.1
v -5.96046e-08 0.3 0.2
v -5.96046e-08 0.3 0.1
v -5.96046e-08 0.4 0.2
v -5.96046e-08 0.4 0.1
v -0.3 0 -0.3
v -0.3 0 -0.4
v -0.3 0.2 -0.2
v -0.3 0.2 -0.3
v -0.3 0.2 -0.4
v -0.3 0.3 -0.2
v -0.3 0.3 -0.3
v -0.3 0.4 -0.2
v -0.3 0.4 -0.3
v -0.1 0.2 -0.3
v -0.1 0.2 -0.4
v -0.1 0.3 -0.3
v -0.1 0.3 -0.4
v -5.96046e-08 0.3 -0.2
v -5.96046e-08 0.3 -0.3
v -5.96046e-08 0.4 -0.2
v -5.96046e-08 0.4 -0.3
v 0.1 0 -0.3
v 0.1 0 -0.4
v 0.1 0.1 -0.3
v 0.1 0.2 -0.2
v 0.1 0.2 -0.3
v 0.1 0.2 -0.4
v 0.1 0.3 -0.2
v 0.1 0.3 -0.3
v 0.1 0.4 0
v 0.1 0.4 -0.1
v 0.1 0.5 0
v 0.1 0.5 -0.1
v 0.2 0 0.3
v 0.2 0 0.2
v 0.2 0 -0.2
v 0.2 0 -0.3
v 0.2 0.1 0.2
v 0.2 0.1 -0.2
v 0.2 0.1 -0.3
v 0.2 0.2 0.3
v 0.2 0.2 0.2
v 0.2 0.2 0.1
v 0.2 0.2 -0.1
v 0.2 0.2 -0.2
v 0.2 0.2 -0.3
v 0.2 0.3 0.2
v 0.2 0.3 0.1
v 0.2 0.3 -0.1
v 0.2 0.3 -0.2
v 0.2 0.4 0.2
v 0.2 0.4 0.1
v 0.2 0.4 -0.1
v 0.2 0.4 -0.2
v 0.3 0 0.2
v 0.3 0 0.1
v 0.3 0.1 0.2
v 0.3 0.1 0.1
v 0.3 0.2 0.2
v 0.3 0.2 0.1
v 0.3 0.3 0.1
v 0.3 0.3 -0.1
v 0.3 0.4 0.1
v 0.3 0.4 -0.1
v 0.4 0 0.1
v 0.4 0 -0.2
v 0.4 0.2 0.1
v 0.4 0.2 -0.1
v 0.4 0.2 -0.2
v 0.4 0.3 0.1
v 0.4 0.3 -0.1
v -0.1 0 0.3
v -0.1 0.2 0.3
v 0.2 0 0.3
v 0.2 0.2 0.3
v -0.2 0 0.2
v -0.2 0.2 0.2
v -0.1 0 0.2
v -0.1 0.2 0.2
v -0.1 0.3 0.2
v -5.96046e-08 0.3 0.2
v -5.96046e-08 0.4 0.2
v 0.1 0.2 0.2
v 0.1 0.3 0.2
v 0.2 0 0.2
v 0.2 0.1 0.2
v 0.2 0.2 0.2
v 0.2 0.3 0.2
v 0.2 0.4 0.2
v 0.3 0 0.2
v 0.3 0.1 0.2
v 0.3 0.2 0.2
v -0.4 0 0.1
v -0.4 0.2 0.1
v -0.3 0.2 0.1
v -0.3 0.3 0.1
v -0.2 0 0.1
v -0.2 0.2 0.1
v -0.2 0.3 0.1
v -0.1 0.2 0.1
v -0.1 0.3 0.1
v -0.1 0.4 0.1
v -5.96046e-08 0.3 0.1
v -5.96046e-08 0.4 0.1
v 0.2 0.2 0.1
v 0.2 0.3 0.1
v 0.2 0.4 0.1
v 0.3 0 0.1
v 0.3 0.1 0.1
v 0.3 0.2 0.1
v 0.3 0.3 0.1
v 0.3 0.4 0.1
v 0.4 0 0.1
v 0.4 0.2 0.1
v 0.4 0.3 0.1
v -0.5 0 0
v -0.5 0.2 0
v -0.4 0 0
v -0.4 0.2 0
v -0.4 0.3 0
v -0.4 0.4 0
v -0.3 0.2 0
v -0.3 0.3 0
v -0.2 0.3 0
v -0.1 0.3 0
v -0.1 0.4 0
v -0.1 0.5 0
v 0.1 0.4 0
v 0.1 0.5 0
v -0.5 0.2 -0.1
v -0.5 0.3 -0.1
v -0.4 0.2 -0.1
v -0.4 0.3 -0.1
v -0.6 0 -0.2
v -0.6 0.2 -0.2
v -0.5 0 -0.2
v -0.5 0.2 -0.2
v -0.5 0.3 -0.2
v -0.5 0.4 -0.2
v -0.4 0.3 -0.2
v -0.4 0.4 -0.2
v -0.1 0.4 -0.1
v -0.1 0.5 -0.1
v 0.1 0.4 -0.1
v 0.1 0.5 -0.1
v 0.2 0.2 -0.1
v 0.2 0.3 -0.1
v 0.2 0.4 -0.1
v 0.3 0.2 -0.1
v 0.3 0.3 -0.1
v 0.3 0.4 -0.1
v 0.4 0.2 -0.1
v 0.4 0.3 -0.1
v -0.3 0.2 -0.2
v -0.3 0.3 -0.2
v -0.3 0.4 -0.2
v -0.2 0.2 -0.2
v -0.2 0.3 -0.2
v -0.2 0.4 -0.2
v -5.96046e-08 0.3 -0.2
v -5.96046e-08 0.4 -0.2
v 0.1 0.2 -0.2
v 0.1 0.3 -0.2
v 0.2 0 -0.2
v 0.2 0.1 -0.2
v 0.2 0.2 -0.2
v 0.2 0.3 -0.2
v 0.2 0.4 -0.2
v 0.3 0.1 -0.2
v 0.3 0.2 -0.2
v 0.4 0 -0.2
v 0.4 0.2 -0.2
v -0.5 0.2 -0.3
v -0.5 0.3 -0.3
v -0.5 0.4 -0.3
v -0.3 0 -0.3
v -0.3 0.2 -0.3
v -0.3 0.3 -0.3
v -0.3 0.4 -0.3
v -0.2 0 -0.3
v -0.2 0.2 -0.3
v -0.2 0.3 -0.3
v -0.2 0.4 -0.3
v -0.1 0.2 -0.3
v -0.1 0.3 -0.3
v -5.96046e-08 0.2 -0.3
v -5.96046e-08 0.3 -0.3
v -5.96046e-08 0.4 -0.3
v 0.1 0 -0.3
v 0.1 0.1 -0.3
v 0.1 0.2 -0.3
v 0.1 0.3 -0.3
v 0.2 0 -0.3
v 0.2 0.1 -0.3
v 0.2 0.2 -0.3
v -0.6 0 -0.4
v -0.6 0.2 -0.4
v -0.3 0 -0.4
v -0.3 0.2 -0.4
v -0.2 0 -0.4
v -0.2 0.2 -0.4
v -0.2 0.3 -0.4
v -0.1 0.2 -0.4
v -0.1 0.3 -0.4
v 0.1 0 -0.4
v 0.1 0.2 -0.4
v -0.1 0 0.3
v 0.2 0 0.3
v -0.2 0 0.2
v -0.1 0 0.2
v 0.2 0 0.2
v 0.3 0 0.2
v -0.4 0 0.1
v -0.2 0 0.1
v -0.1 0 0.1
v 0.3 0 0.1
v 0.4 0 0.1
v -0.5 0 0
v -0.4 0 0
v 0.2 0 -0.1
v 0.3 0 -0.1
v -0.6 0 -0.2
v -0.5 0 -0.2
v 0.1 0 -0.2
v 0.2 0 -0.2
v 0.4 0 -0.2
v -0.3 0 -0.3
v -0.2 0 -0.3
v 0.1 0 -0.3
v 0.2 0 -0.3
v -0.6 0 -0.4
v -0.3 0 -0.4
v -0.2 0 -0.4
v 0.1 0 -0.4
v -0.1 0.2 0.3
v 0.2 0.2 0.3
v -0.2 0.2 0.2
v -0.1 0.2 0.2
v 0.1 0.2 0.2
v 0.2 0.2 0.2
v 0.3 0.2 0.2
v -0.4 0.2 0.1
v -0.3 0.2 0.1
v -0.2 0.2 0.1
v -0.1 0.2 0.1
v 0.2 0.2 0.1
v 0.3 0.2 0.1
v -0.5 0.2 0
v -0.4 0.2 0
v -0.3 0.2 0
v -0.5 0.2 -0.1
v -0.4 0.2 -0.1
v 0.2 0.2 -0.1
v 0.3 0.2 -0.1
v 0.4 0.2 -0.1
v -0.6 0.2 -0.2
v -0.5 0.2 -0.2
v -0.3 0.2 -0.2
v -0.2 0.2 -0.2
v 0.1 0.2 -0.2
v 0.2 0.2 -0.2
v 0.3 0.2 -0.2
v 0.4 0.2 -0.2
v -0.5 0.2 -0.3
v -0.3 0.2 -0.3
v -0.2 0.2 -0.3
v -0.1 0.2 -0.3
v -5.96046e-08 0.2 -0.3
v 0.1 0.2 -0.3
v 0.2 0.2 -0.3
v -0.6 0.2 -0.4
v -0.3 0.2 -0.4
v -0.1 0.2 -0.4
v 0.1 0.2 -0.4
v -0.1 0.3 0.2
v -5.96046e-08 0.3 0.2
v -0.3 0.3 0.1
v -0.2 0.3 0.1
v -0.1 0.3 0.1
v -5.96046e-08 0.3 0.1
v 0.3 0.3 0.1
v 0.4 0.3 0.1
v -0.3 0.3 0
v -0.2 0.3 0
v -0.1 0.3 0
v -0.5 0.3 -0.1
v -0.4 0.3 -0.1
v 0.3 0.3 -0.1
v 0.4 0.3 -0.1
v -0.5 0.3 -0.2
v -0.4 0.3 -0.2
v -5.96046e-08 0.3 -0.2
v 0.1 0.3 -0.2
v -0.2 0.3 -0.3
v -0.1 0.3 -0.3
v -5.96046e-08 0.3 -0.3
v 0.1 0.3 -0.3
v -0.2 0.3 -0.4
v -0.1 0.3 -0.4
v -5.96046e-08 0.4 0.2
v 0.2 0.4 0.2
v -0.1 0.4 0.1
v -5.96046e-08 0.4 0.1
v 0.2 0.4 0.1
v 0.3 0.4 0.1
v -0.4 0.4 0
v -0.1 0.4 0
v 0.1 0.4 0
v -0.1 0.4 -0.1
v 0.1 0.4 -0.1
v 0.2 0.4 -0.1
v 0.3 0.4 -0.1
v -0.5 0.4 -0.2
v -0.4 0.4 -0.2
v -0.3 0.4 -0.2
v -0.2 0.4 -0.2
v -5.96046e-08 0.4 -0.2
v 0.2 0.4 -0.2
v -0.5 0.4 -0.3
v -0.3 0.4 -0.3
v -0.2 0.4 -0.3
v -5.96046e-08 0.4 -0.3
v -0.1 0.5 0
v 0.1 0.5 0
v -0.1 0.5 -0.1
v 0.1 0.5 -0.1

# faces
f 3/4/1 2/4/1 1/4/1
f 4/4/1 2/4/1 3/4/1
f 7/4/1 6/4/1 5/4/1
f 8/4/1 6/4/1 7/4/1
f 9/4/1 6/4/1 8/4/1
f 11/5/1 9/5/1 8/5/1
f 12/4/1 10/4/1 9/4/1
f 12/5/1 9/5/1 11/5/1
f 13/4/1 10/4/1 12/4/1
f 14/5/1 13/5/1 12/5/1
f 15/5/1 13/5/1 14/5/1
f 18/4/1 17/4/1 16/4/1
f 19/4/1 17/4/1 18/4/1
f 21/4/1 20/4/1 19/4/1
f 22/4/1 20/4/1 21/4/1
f 24/5/1 22/5/1 21/5/1
f 24/5/1 23/5/1 22/5/1
f 25/5/1 23/5/1 24/5/1
f 28/5/1 27/5/1 26/5/1
f 29/5/1 27/5/1 28/5/1
f 34/2/1 31/2/1 30/2/1
f 35/2/1 31/2/1 34/2/1
f 37/2/1 33/2/1 32/2/1
f 38/2/1 33/2/1 37/2/1
f 39/4/1 37/4/1 36/4/1
f 40/5/1 38/5/1 37/5/1
f 40/4/1 37/4/1 39/4/1
f 41/5/1 38/5/1 40/5/1
f 42/5/1 40/5/1 39/5/1
f 43/5/1 40/5/1 42/5/1
f 46/2/1 45/2/1 44/2/1
f 47/2/1 45/2/1 46/2/1
f 49/2/1 48/2/1 47/2/1
f 50/2/1 48/2/1 49/2/1
f 52/5/1 51/5/1 50/5/1
f 53/5/1 51/5/1 52/5/1
f 55/5/1 54/5/1 53/5/1
f 56/5/1 54/5/1 55/5/1
f 59/5/1 58/5/1 57/5/1
f 60/5/1 58/5/1 59/5/1
f 61/4/2 62/4/2 64/4/2
f 64/4/2 62/4/2 65/4/2
f 63/4/2 64/4/2 66/4/2
f 66/4/2 64/4/2 67/4/2
f 66/5/2 67/5/2 68/5/2
f 68/5/2 67/5/2 69/5/2
f 70/5/2 71/5/2 72/5/2
f 72/5/2 71/5/2 73/5/2
f 74/5/2 75/5/2 76/5/2
f 76/5/2 75/5/2 77/5/2
f 78/2/2 79/2/2 80/2/2
f 80/2/2 79/2/2 82/2/2
f 82/2/2 79/2/2 83/2/2
f 81/5/2 82/5/2 84/5/2
f 84/5/2 82/5/2 85/5/2
f 86/5/2 87/5/2 88/5/2
f 88/5/2 87/5/2 89/5/2
f 90/2/2 91/2/2 94/2/2
f 92/3/2 93/3/2 95/3/2
f 95/3/2 93/3/2 96/3/2
f 90/2/2 94/2/2 97/2/2
f 97/2/2 94/2/2 98/2/2
f 95/2/2 96/2/2 101/2/2
f 101/2/2 96/2/2 102/2/2
f 98/3/2 99/3/2 103/3/2
f 103/3/2 99/3/2 104/3/2
f 100/2/2 101/2/2 105/2/2
f 105/2/2 101/2/2 106/2/2
f 103/5/2 104/5/2 107/5/2
f 107/5/2 104/5/2 108/5/2
f 105/5/2 106/5/2 109/5/2
f 109/5/2 106/5/2 110/5/2
f 111/4/2 112/4/2 113/4/2
f 113/4/2 112/4/2 114/4/2
f 113/3/2 114/3/2 115/3/2
f 115/3/2 114/3/2 116/3/2
f 117/5/2 118/5/2 119/5/2
f 119/5/2 118/5/2 120/5/2
f 121/3/2 122/3/2 123/3/2
f 123/3/2 122/3/2 124/3/2
f 124/3/2 122/3/2 125/3/2
f 123/5/2 124/5/2 126/5/2
f 126/5/2 124/5/2 127/5/2
f 130/2/3 129/2/3 128/2/3
f 131/2/3 129/2/3 130/2/3
f 134/2/3 133/2/3 132/2/3
f 135/2/3 133/2/3 134/2/3
f 137/2/3 136/2/3 135/2/3
f 139/2/3 137/2/3 135/2/3
f 140/5/3 138/5/3 137/5/3
f 140/2/3 137/2/3 139/2/3
f 143/3/3 140/3/3 139/3/3
f 144/5/3 138/5/3 140/5/3
f 144/3/3 140/3/3 143/3/3
f 145/5/3 138/5/3 144/5/3
f 146/4/3 142/4/3 141/4/3
f 147/3/3 143/3/3 142/3/3
f 147/4/3 142/4/3 146/4/3
f 148/3/3 143/3/3 147/3/3
f 151/4/3 150/4/3 149/4/3
f 153/4/3 151/4/3 149/4/3
f 154/5/3 152/5/3 151/5/3
f 154/4/3 151/4/3 153/4/3
f 155/5/3 152/5/3 154/5/3
f 156/2/3 155/2/3 154/2/3
f 157/2/3 155/2/3 156/2/3
f 159/5/3 158/5/3 157/5/3
f 160/5/3 158/5/3 159/5/3
f 166/3/3 162/3/3 161/3/3
f 167/5/3 163/5/3 162/5/3
f 167/3/3 162/3/3 166/3/3
f 168/5/3 163/5/3 167/5/3
f 169/3/3 165/3/3 164/3/3
f 169/3/3 166/3/3 165/3/3
f 170/5/3 167/5/3 166/5/3
f 170/3/3 166/3/3 169/3/3
f 171/5/3 167/5/3 170/5/3
f 174/4/3 173/4/3 172/4/3
f 175/4/3 173/4/3 174/4/3
f 178/4/3 176/4/3 175/4/3
f 179/5/3 177/5/3 176/5/3
f 179/4/3 176/4/3 178/4/3
f 180/5/3 177/5/3 179/5/3
f 181/5/3 177/5/3 180/5/3
f 182/5/3 177/5/3 181/5/3
f 184/5/3 183/5/3 182/5/3
f 185/5/3 183/5/3 184/5/3
f 188/5/3 187/5/3 186/5/3
f 189/5/3 187/5/3 188/5/3
f 192/4/3 191/4/3 190/4/3
f 193/4/3 191/4/3 192/4/3
f 196/5/3 195/5/3 194/5/3
f 197/5/3 195/5/3 196/5/3
f 198/5/4 199/5/4 200/5/4
f 200/5/4 199/5/4 201/5/4
f 202/2/4 203/2/4 205/2/4
f 203/5/4 204/5/4 206/5/4
f 205/2/4 203/2/4 206/2/4
f 206/5/4 204/5/4 207/5/4
f 205/5/4 206/5/4 208/5/4
f 208/5/4 206/5/4 209/5/4
f 210/4/4 211/4/4 213/4/4
f 211/5/4 212/5/4 214/5/4
f 213/4/4 211/4/4 214/4/4
f 214/5/4 212/5/4 215/5/4
f 216/5/4 217/5/4 219/5/4
f 218/2/4 219/2/4 222/2/4
f 219/5/4 217/5/4 223/5/4
f 222/2/4 219/2/4 223/2/4
f 223/5/4 217/5/4 224/5/4
f 221/2/4 222/2/4 225/2/4
f 220/3/4 221/3/4 225/3/4
f 225/2/4 222/2/4 226/2/4
f 220/3/4 225/3/4 227/3/4
f 225/3/4 226/3/4 227/3/4
f 227/3/4 226/3/4 228/3/4
f 229/4/4 230/4/4 233/4/4
f 230/5/4 231/5/4 234/5/4
f 233/4/4 230/4/4 234/4/4
f 234/5/4 231/5/4 235/5/4
f 232/4/4 233/4/4 236/4/4
f 236/4/4 233/4/4 237/4/4
f 238/5/4 239/5/4 241/5/4
f 240/2/4 241/2/4 242/2/4
f 241/5/4 239/5/4 243/5/4
f 242/2/4 241/2/4 243/2/4
f 243/5/4 239/5/4 244/5/4
f 242/5/4 243/5/4 247/5/4
f 247/5/4 243/5/4 248/5/4
f 245/3/4 246/3/4 249/3/4
f 246/2/4 247/2/4 250/2/4
f 249/3/4 246/3/4 250/3/4
f 250/2/4 247/2/4 251/2/4
f 252/4/4 253/4/4 254/4/4
f 254/4/4 253/4/4 255/4/4
f 256/2/4 257/2/4 259/2/4
f 257/5/4 258/5/4 259/5/4
f 259/5/4 258/5/4 260/5/4
f 256/2/4 259/2/4 261/2/4
f 261/2/4 259/2/4 262/2/4
f 266/2/5 264/2/5 263/2/5
f 267/2/5 264/2/5 266/2/5
f 270/2/5 266/2/5 265/2/5
f 271/4/5 268/4/5 267/4/5
f 271/4/5 267/4/5 266/4/5
f 271/2/5 266/2/5 270/2/5
f 272/4/5 268/4/5 271/4/5
f 275/4/5 270/4/5 269/4/5
f 275/4/5 271/4/5 270/4/5
f 275/4/5 272/4/5 271/4/5
f 276/4/5 272/4/5 275/4/5
f 276/4/5 275/4/5 274/4/5
f 277/3/5 273/3/5 272/3/5
f 277/4/5 272/4/5 276/4/5
f 279/4/5 276/4/5 274/4/5
f 280/4/5 276/4/5 279/4/5
f 281/3/5 277/3/5 276/3/5
f 281/4/5 276/4/5 280/4/5
f 282/3/5 273/3/5 277/3/5
f 282/3/5 277/3/5 281/3/5
f 283/4/5 280/4/5 279/4/5
f 283/4/5 279/4/5 278/4/5
f 284/4/5 280/4/5 283/4/5
f 285/3/5 281/3/5 280/3/5
f 285/4/5 280/4/5 284/4/5
f 286/3/5 281/3/5 285/3/5
f 287/4/5 283/4/5 278/4/5
f 288/4/5 283/4/5 287/4/5
f 289/2/5 285/2/5 284/2/5
f 290/2/5 285/2/5 289/2/5
f 291/2/6 292/2/6 294/2/6
f 294/2/6 292/2/6 295/2/6
f 295/2/6 292/2/6 296/2/6
f 293/2/6 294/2/6 300/2/6
f 300/2/6 294/2/6 301/2/6
f 296/3/6 297/3/6 302/3/6
f 302/3/6 297/3/6 303/3/6
f 298/4/6 299/4/6 305/4/6
f 305/4/6 299/4/6 306/4/6
f 304/4/6 305/4/6 307/4/6
f 307/4/6 305/4/6 308/4/6
f 309/2/6 310/2/6 317/2/6
f 310/3/6 311/3/6 318/3/6
f 317/2/6 310/2/6 318/2/6
f 318/3/6 311/3/6 319/3/6
f 312/4/6 313/4/6 320/4/6
f 314/4/6 315/4/6 321/4/6
f 321/4/6 315/4/6 322/4/6
f 316/2/6 317/2/6 325/2/6
f 325/2/6 317/2/6 326/2/6
f 312/4/6 320/4/6 327/4/6
f 320/4/6 321/4/6 327/4/6
f 327/4/6 321/4/6 328/4/6
f 323/2/6 324/2/6 329/2/6
f 324/2/6 325/2/6 329/2/6
f 329/2/6 325/2/6 330/2/6
f 331/2/6 332/2/6 335/2/6
f 335/2/6 332/2/6 336/2/6
f 333/5/6 334/5/6 339/5/6
f 334/2/6 335/2/6 340/2/6
f 339/5/6 334/5/6 340/5/6
f 340/2/6 335/2/6 341/2/6
f 337/5/6 338/5/6 344/5/6
f 344/5/6 338/5/6 345/5/6
f 342/5/6 343/5/6 346/5/6
f 346/5/6 343/5/6 347/5/6
f 348/5/6 349/5/6 352/5/6
f 352/5/6 349/5/6 353/5/6
f 350/5/6 351/5/6 354/5/6
f 354/5/6 351/5/6 355/5/6
f 356/5/6 357/5/6 359/5/6
f 359/5/6 357/5/6 360/5/6
f 358/5/6 359/5/6 363/5/6
f 360/5/6 361/5/6 363/5/6
f 359/5/6 360/5/6 363/5/6
f 363/5/6 361/5/6 364/5/6
f 362/5/6 363/5/6 365/5/6
f 364/5/6 361/5/6 366/5/6
f 366/5/6 361/5/6 367/5/6
f 367/5/6 361/5/6 368/5/6
f 362/5/6 365/5/6 370/5/6
f 365/5/6 366/5/6 370/5/6
f 366/5/6 367/5/6 370/5/6
f 370/5/6 367/5/6 371/5/6
f 371/5/6 367/5/6 372/5/6
f 372/5/6 367/5/6 373/5/6
f 373/5/6 367/5/6 374/5/6
f 369/5/6 370/5/6 375/5/6
f 370/5/6 371/5/6 375/5/6
f 375/5/6 371/5/6 376/5/6
f 372/5/6 373/5/6 377/5/6
f 377/5/6 373/5/6 378/5/6
f 379/5/6 380/5/6 381/5/6
f 381/5/6 380/5/6 382/5/6
